<svg id="Icons" xmlns="http://www.w3.org/2000/svg" width="96" height="96" viewBox="0 0 96 96">
  <path id="_256" data-name=" 256" class="fill" d="M86.118,23.26A35.492,35.492,0,0,0,59.98,12,36.486,36.486,0,0,0,34.16,22.785c-1.168-.106-2.337-.212-3.453-.212C11.741,22.573,0,38.432,0,53.128A31.471,31.471,0,0,0,8.607,74.485,30.333,30.333,0,0,0,30.707,84H59.98A35.974,35.974,0,0,0,86.118,23.26ZM30.176,78.872a25.348,25.348,0,1,1,16.788-44.3l.106.106L57.642,45.463a4.5,4.5,0,0,1-.106,6.4,4.553,4.553,0,0,1-6.428-.105L40.642,41.075a16.292,16.292,0,0,0-22.9,1.692,15.956,15.956,0,0,0-3.931,10.52A16.708,16.708,0,0,0,30.388,69.674H32.46v.053c2.976,4.123,11.316,9.145,11.316,9.145Zm52.117-9.145a30.427,30.427,0,0,1-21.782,9.3c-7.809,0-15.778-3.489-21.888-9.515L24.7,55.613a4.548,4.548,0,0,1,.053-6.4,4.57,4.57,0,0,1,6.428.106l13.866,13.8a22.388,22.388,0,0,0,15.46,6.872,21,21,0,0,0,15.3-6.608,22.293,22.293,0,0,0,6.375-15.594A21.792,21.792,0,0,0,60.405,26.115,19.8,19.8,0,0,0,48.345,29.6c-.053-.053-1.062-.687-2.178-1.375-.691-.422-1.434-.845-2.072-1.163-.637-.37-2.55-1.268-3.666-1.744-.265-.106-.637-.264-.8-.317h.053a29.627,29.627,0,0,1,20.719-7.93A30.817,30.817,0,0,1,91.272,47.789,31.183,31.183,0,0,1,82.293,69.727Z"/>
</svg>
